<?xml version="1.0" encoding="UTF-8" standalone="no"?>
<!-- Created with Inkscape (http://www.inkscape.org/) -->

<svg
   xmlns:dc="http://purl.org/dc/elements/1.1/"
   xmlns:cc="http://creativecommons.org/ns#"
   xmlns:rdf="http://www.w3.org/1999/02/22-rdf-syntax-ns#"
   xmlns:svg="http://www.w3.org/2000/svg"
   xmlns="http://www.w3.org/2000/svg"
   xmlns:sodipodi="http://sodipodi.sourceforge.net/DTD/sodipodi-0.dtd"
   xmlns:inkscape="http://www.inkscape.org/namespaces/inkscape"
   width="64"
   height="64"
   viewBox="0 0 64 64"
   id="svg2"
   version="1.1"
   inkscape:version="0.91 r13725"
   sodipodi:docname="source.svg"
   inkscape:export-filename="C:\Users\user\Documents\Java\ews-redirector\src\main\resources\icons\64.png"
   inkscape:export-xdpi="93.274643"
   inkscape:export-ydpi="93.274643">
  <defs
     id="defs4" />
  <sodipodi:namedview
     id="base"
     pagecolor="#ffffff"
     bordercolor="#666666"
     borderopacity="1.0"
     inkscape:pageopacity="0.0"
     inkscape:pageshadow="2"
     inkscape:zoom="4"
     inkscape:cx="21.517766"
     inkscape:cy="31.713754"
     inkscape:document-units="px"
     inkscape:current-layer="layer1"
     showgrid="false"
     units="px"
     inkscape:window-width="1007"
     inkscape:window-height="782"
     inkscape:window-x="729"
     inkscape:window-y="161"
     inkscape:window-maximized="0" />
  <metadata
     id="metadata7">
    <rdf:RDF>
      <cc:Work
         rdf:about="">
        <dc:format>image/svg+xml</dc:format>
        <dc:type
           rdf:resource="http://purl.org/dc/dcmitype/StillImage" />
        <dc:title></dc:title>
      </cc:Work>
    </rdf:RDF>
  </metadata>
  <g
     inkscape:label="Layer 1"
     inkscape:groupmode="layer"
     id="layer1"
     transform="translate(0,-988.36216)">
    <g
       id="g4178"
       transform="matrix(1.1874888,0,0,1.1943767,-3.4999551,-196.73307)">
      <path
         sodipodi:nodetypes="ccccc"
         inkscape:connector-curvature="0"
         id="path3336"
         d="M 28.505385,996.68847 4,1002.6122 l 0,30 24.647097,5.1112 z"
         style="fill:#009100;fill-opacity:0.52325583;fill-rule:evenodd;stroke:none;stroke-width:1px;stroke-linecap:butt;stroke-linejoin:miter;stroke-opacity:0.52156863" />
      <rect
         ry="0"
         y="1004.3687"
         x="28.506512"
         height="27.237"
         width="18.73698"
         id="rect3340"
         style="fill:none;fill-rule:evenodd;stroke:#009100;stroke-width:1.01302254px;stroke-linecap:butt;stroke-linejoin:miter;stroke-opacity:0.52156863" />
      <g
         id="text4156"
         style="font-style:normal;font-weight:normal;font-size:22.5px;line-height:125%;font-family:sans-serif;letter-spacing:0px;word-spacing:0px;fill:#ffffff;fill-opacity:1;stroke:none;stroke-width:1px;stroke-linecap:butt;stroke-linejoin:miter;stroke-opacity:1">
        <path
           sodipodi:nodetypes="ccccccccccccc"
           inkscape:connector-curvature="0"
           id="path4161"
           d="m 11.208252,1008.9596 10.121094,-1.25 0,2.3677 -7.901856,0.75 0,4.8559 7.81128,0 0,1.8677 -7.81128,0 0,5.9436 8.34961,0.75 -0.125,2.2427 -10.443848,-1.125 z" />
      </g>
      <g
         transform="translate(3,0.625)"
         id="text4163"
         style="font-style:normal;font-weight:normal;font-size:17.5px;line-height:125%;font-family:sans-serif;letter-spacing:0px;word-spacing:0px;fill:#000000;fill-opacity:1;stroke:none;stroke-width:1px;stroke-linecap:butt;stroke-linejoin:miter;stroke-opacity:1">
        <path
           inkscape:connector-curvature="0"
           id="path4168"
           d="m 36.405157,1017.0358 q 0.55542,0.188 1.07666,0.8032 0.529785,0.6152 1.059571,1.6919 l 1.751709,3.4863 -1.854249,0 -1.63208,-3.2727 q -0.632324,-1.2817 -1.230468,-1.7004 -0.5896,-0.4187 -1.614991,-0.4187 l -1.879882,0 0,5.3918 -1.726075,0 0,-12.7576 3.896485,0 q 2.1875,0 3.26416,0.9144 1.07666,0.9143 1.07666,2.76 0,1.2048 -0.563965,1.9995 -0.55542,0.7946 -1.623535,1.1023 z m -4.32373,-5.3577 0,4.5288 2.17041,0 q 1.247558,0 1.879883,-0.5725 0.640869,-0.5811 0.640869,-1.7004 0,-1.1194 -0.640869,-1.6834 -0.632325,-0.5725 -1.879883,-0.5725 l -2.17041,0 z" />
      </g>
      <path
         inkscape:connector-curvature="0"
         d="m 43.724877,1020.4406 7.622185,0 -1.151005,5.268 5.277733,-7.3349 -5.57231,-8.0907 m 0.185494,0.1083 1.260089,5.7724 -7.622186,0 0,4.2769"
         style="fill:none;fill-rule:evenodd;stroke:#000000;stroke-width:0.86568439px;stroke-linecap:butt;stroke-linejoin:miter;stroke-opacity:1"
         id="path4174" />
    </g>
  </g>
</svg>
